<svg width="25" height="25" viewBox="0 0 25 25" fill="none" xmlns="http://www.w3.org/2000/svg">
<path d="M5.83333 11.6667C5.37278 11.6667 5 11.2936 5 10.8333C5 7.61667 7.61722 5 10.8333 5C11.2939 5 11.6667 5.37306 11.6667 5.83333C11.6667 6.29361 11.2939 6.66667 10.8333 6.66667C8.53583 6.66667 6.66667 8.53583 6.66667 10.8333C6.66667 11.2936 6.29389 11.6667 5.83333 11.6667ZM24.7558 24.7558C24.5931 24.9186 24.38 25 24.1667 25C23.9533 25 23.7403 24.9186 23.5775 24.7558L17.8728 19.0511C15.9772 20.6772 13.5206 21.6667 10.8333 21.6667C4.86 21.6667 0 16.8069 0 10.8333C0 4.85972 4.86 0 10.8333 0C16.8067 0 21.6667 4.85972 21.6667 10.8333C21.6667 13.5208 20.6772 15.9775 19.0511 17.8728L24.7558 23.5775C25.0814 23.9031 25.0814 24.4303 24.7558 24.7558ZM20 10.8333C20 5.77889 15.8878 1.66667 10.8333 1.66667C5.77889 1.66667 1.66667 5.77889 1.66667 10.8333C1.66667 15.8878 5.77889 20 10.8333 20C15.8878 20 20 15.8878 20 10.8333Z" fill="white"/>
</svg>
